Coordinates
version=1
nRows=32
nColumns=18
inDegrees=yes

Units are S.I. units (second, meters, Newtons, ...)
Angles are in degrees.

endheader
time	ground_thorax_rot_x	ground_thorax_rot_y	ground_thorax_rot_z	ground_thorax_tx	ground_thorax_ty	ground_thorax_tz	clav_prot	clav_elev	scapula_abduction	scapula_elevation	scapula_upward_rot	scapula_winging	plane_elv	shoulder_elv	axial_rot	elbow_flexion	pro_sup
      2.16000000	      0.36426326	     -9.14792674	    -10.03082675	     -0.00423131	      0.00403036	     -0.00078352	    -25.39499424	     13.49939774	    -14.44003385	      5.35446755	     28.32372902	     -1.04904604	    -24.31835786	      2.47457234	     32.06147224	      0.00000000	     34.32000000
      2.17000000	      0.16932422	     -9.08657609	     -9.93629237	     -0.00423131	      0.00403036	     -0.00078352	    -25.37857850	     13.47003319	    -14.28536792	      5.30418793	     28.45734134	     -1.09398957	    -32.20339099	      1.46445243	     43.21765672	      0.00000000	     34.32000000
      2.18000000	      0.20898218	     -9.14143832	     -9.93041873	     -0.00423131	      0.00403036	     -0.00078352	    -25.35566228	     13.50499274	    -14.27985935	      5.33563302	     28.43938684	     -1.08055865	    -30.95953337	      1.54196162	     42.19647685	      0.00000000	     34.32000000
      2.19000000	      0.22504758	     -9.16009824	     -9.92142238	     -0.00423131	      0.00403036	     -0.00078352	    -25.35533160	     13.51894469	    -14.28266652	      5.34456529	     28.44549119	     -1.08120373	    -31.01240077	      1.55196515	     42.02895238	      0.00000000	     34.32000000
      2.20000000	      0.28019768	     -9.22608271	     -9.97172510	     -0.00423131	      0.00403036	     -0.00078352	    -25.29820674	     13.51714777	    -14.37103308	      5.40156310	     28.20447143	     -0.99287665	    -24.62309367	      2.40529876	     33.11073080	      0.00000000	     34.32000000
      2.21000000	      0.25001627	     -9.25962889	     -9.97744537	     -0.00423131	      0.00403036	     -0.00078352	    -25.30673189	     13.52080224	    -14.38176014	      5.40153679	     28.21348417	     -0.99720226	    -24.62487936	      2.40003985	     33.11913685	      0.00000000	     34.32000000
      2.22000000	      0.21275734	     -9.18733864	    -10.03736830	     -0.00423131	      0.00403036	     -0.00078352	    -25.43049151	     13.44057223	    -14.71543788	      5.37814606	     28.01398796	     -0.95863290	    -20.57974994	      2.70171882	     29.71891587	      0.00000000	     34.32000000
      2.23000000	      0.30293019	     -9.20105980	    -10.11285207	     -0.00423131	      0.00403036	     -0.00078352	    -25.43331997	     13.46573430	    -14.67872199	      5.38033373	     28.08558952	     -0.97980146	    -20.76856170	      2.66611168	     29.86283827	      0.00000000	     34.32000000
      2.24000000	      0.28497873	     -9.16149242	    -10.10151859	     -0.00423131	      0.00403036	     -0.00078352	    -25.43358501	     13.47294458	    -14.67800030	      5.38393611	     28.09311992	     -0.98141212	    -20.77927015	      2.68751854	     29.87162945	      0.00000000	     34.32000000
      2.25000000	      0.21609261	     -9.00232760	     -9.96685834	     -0.00423131	      0.00403036	     -0.00078352	    -25.42591068	     13.52570541	    -14.64905441	      5.40995514	     28.15245153	     -0.99442920	    -24.59038237	      2.75126694	     29.80264471	      0.00000000	     34.32000000
      2.26000000	      0.23036279	     -9.01526750	    -10.00210527	     -0.00423131	      0.00403036	     -0.00078352	    -25.42298615	     13.53664475	    -14.66053101	      5.42112079	     28.13986209	     -0.98815201	    -24.58099281	      2.73823253	     29.82615398	      0.00000000	     34.32000000
      2.27000000	      0.27035725	     -9.04456602	     -9.98504534	     -0.00423131	      0.00403036	     -0.00078352	    -25.43676026	     13.59061895	    -14.75515002	      5.47015623	     28.09425998	     -0.96876638	    -23.35875600	      2.68568829	     30.20037101	      0.00000000	     34.32000000
      2.28000000	      0.24011238	     -9.07575392	     -9.89835270	     -0.00423131	      0.00403036	     -0.00078352	    -25.44245601	     13.68882415	    -14.58199904	      5.47360630	     28.39842814	     -1.05945338	    -31.60839043	      1.55028921	     42.88930182	      0.00000000	     34.32000000
      2.29000000	      0.19303445	     -9.19102253	     -9.95339805	     -0.00423131	      0.00403036	     -0.00078352	    -25.39571729	     13.60395039	    -14.45727344	      5.41793129	     28.38397342	     -1.05684297	    -32.90465129	      1.45314999	     44.42979495	      0.00000000	     34.32000000
      2.30000000	      0.17986859	     -9.24749705	     -9.96292357	     -0.00423131	      0.00403036	     -0.00078352	    -25.40151946	     13.61099835	    -14.47491590	      5.42349590	     28.38014450	     -1.05610494	    -32.90505096	      1.45821439	     44.42743354	      0.00000000	     34.32000000
      2.31000000	      0.24452533	     -9.35258861	     -9.97611419	     -0.00423131	      0.00403036	     -0.00078352	    -25.41581776	     13.70984604	    -14.55940458	      5.49456761	     28.38290957	     -1.04778140	    -29.15070595	      1.91861456	     38.29829196	      0.00000000	     34.32000000
      2.32000000	      0.19745733	     -9.30923798	     -9.92331355	     -0.00423131	      0.00403036	     -0.00078352	    -25.42687861	     13.70778493	    -14.57143943	      5.49038991	     28.39115689	     -1.05242580	    -31.76779243	      1.53610757	     43.06254639	      0.00000000	     34.32000000
      2.33000000	      0.25047954	     -9.27987519	    -10.02107724	     -0.00423131	      0.00403036	     -0.00078352	    -25.41711860	     13.57335717	    -14.73671776	      5.46671698	     28.05956399	     -0.95635206	    -24.92614309	      2.43819378	     34.26382354	      0.00000000	     34.32000000
      2.34000000	      0.23869309	     -9.12875095	     -9.93575152	     -0.00423131	      0.00403036	     -0.00078352	    -25.47570631	     13.53872046	    -14.64844484	      5.38816650	     28.27568616	     -1.04075246	    -32.10422692	      1.73473167	     43.24926867	      0.00000000	     34.32000000
      2.35000000	      0.20822599	     -9.12986482	     -9.92954805	     -0.00423131	      0.00403036	     -0.00078352	    -25.43838857	     13.45334901	    -14.60420449	      5.34929151	     28.18134667	     -1.01348850	    -31.72182099	      2.06546636	     40.62533166	      0.00000000	     34.32000000
      2.36000000	      0.24281924	     -9.19969371	     -9.94043892	     -0.00423131	      0.00403036	     -0.00078352	    -25.42656068	     13.49749619	    -14.63265283	      5.38903329	     28.15291645	     -0.99746545	    -29.76241848	      2.14274176	     39.36505431	      0.00000000	     34.32000000
      2.37000000	      0.28513776	     -9.35660064	     -9.86893925	     -0.00423131	      0.00403036	     -0.00078352	    -25.28277081	     13.59925882	    -14.46107097	      5.48211394	     28.12026507	     -0.95375427	    -28.72062105	      2.33493226	     37.43142569	      0.00000000	     34.32000000
      2.38000000	      0.23725213	     -9.35700244	    -10.01925188	     -0.00423131	      0.00403036	     -0.00078352	    -25.36183759	     13.40121576	    -14.71262996	      5.39537746	     27.83221837	     -0.89214034	    -23.81909173	      2.76085744	     32.49681063	      0.00000000	     34.32000000
      2.39000000	      0.22613994	     -9.32078052	     -9.93702330	     -0.00423131	      0.00403036	     -0.00078352	    -25.43122865	     13.41207651	    -14.59323048	      5.32698285	     28.14764492	     -1.00575588	    -31.56213852	      1.70914781	     43.48537275	      0.00000000	     34.32000000
      2.40000000	      0.26539921	     -9.34593122	     -9.92152889	     -0.00423131	      0.00403036	     -0.00078352	    -25.43760949	     13.39454658	    -14.59433637	      5.31374865	     28.14706554	     -1.00854556	    -31.56209032	      1.73203076	     43.48586843	      0.00000000	     34.32000000
      2.41000000	      0.29738811	     -9.39125291	    -10.04217169	     -0.00423131	      0.00403036	     -0.00078352	    -25.40395076	     13.26851450	    -14.65882777	      5.28058093	     27.89349162	     -0.93348441	    -26.09194687	      2.51135527	     36.13990320	      0.00000000	     34.32000000
      2.42000000	      0.23172370	     -9.33017568	     -9.94412441	     -0.00423131	      0.00403036	     -0.00078352	    -25.41495959	     13.32472473	    -14.55043438	      5.27513563	     28.09763837	     -0.99640952	    -32.44786642	      1.80925562	     43.84216074	      0.00000000	     34.32000000
      2.43000000	      0.59389402	     -9.28587428	    -10.05588190	     -0.00423131	      0.00403036	     -0.00078352	    -25.64316980	     13.53257218	    -15.40657555	      5.50133314	     27.69953884	     -0.87571121	    -17.14013401	      3.08340362	     28.78961869	      0.00000000	     34.32000000
      2.44000000	      0.24033147	     -9.38382504	     -9.94657212	     -0.00423131	      0.00403036	     -0.00078352	    -25.34916882	     13.36210319	    -14.50775174	      5.32263790	     28.03065483	     -0.96052483	    -31.52739917	      1.81587017	     43.09226435	      0.00000000	     34.32000000
      2.45000000	      0.20775075	     -9.45560094	     -9.94618242	     -0.00423131	      0.00403036	     -0.00078352	    -25.26425290	     13.27677921	    -14.36529916	      5.28381893	     27.95187890	     -0.93153172	    -31.76619191	      1.91543257	     42.87236895	      0.00000000	     34.32000000
      2.46000000	      0.19235322	     -9.49880630	     -9.95051425	     -0.00423131	      0.00403036	     -0.00078352	    -25.21776208	     13.22844068	    -14.29228680	      5.26312114	     27.90105319	     -0.91337769	    -32.30951281	      1.96132698	     43.38402998	      0.00000000	     34.32000000
      2.47000000	      0.20128561	     -9.58410499	     -9.95665037	     -0.00423131	      0.00403036	     -0.00078352	    -25.14945585	     13.28488906	    -14.16732349	      5.29963422	     27.94584358	     -0.91243358	    -33.05972324	      2.02205634	     43.62740384	      0.00000000	     34.32000000
